<?xml version="1.0" encoding="UTF-8" standalone="no"?>
<!-- Created with Inkscape (http://www.inkscape.org/) -->

<svg
   xmlns:dc="http://purl.org/dc/elements/1.1/"
   xmlns:cc="http://creativecommons.org/ns#"
   xmlns:rdf="http://www.w3.org/1999/02/22-rdf-syntax-ns#"
   xmlns:svg="http://www.w3.org/2000/svg"
   xmlns="http://www.w3.org/2000/svg"
   xmlns:xlink="http://www.w3.org/1999/xlink"
   xmlns:sodipodi="http://sodipodi.sourceforge.net/DTD/sodipodi-0.dtd"
   xmlns:inkscape="http://www.inkscape.org/namespaces/inkscape"
   width="76.904449mm"
   height="94.814552mm"
   viewBox="0 0 272.49608 335.95707"
   id="svg2"
   version="1.1"
   inkscape:version="0.91 r13725"
   sodipodi:docname="libauspol_logo.svg"
   inkscape:export-filename="/home/ajd/projects/libauspol/docs/libauspol_logo_400px.png"
   inkscape:export-xdpi="132.11"
   inkscape:export-ydpi="132.11">
  <defs
     id="defs4">
    <polygon
       points="7.0365,-5.6114 3.8997,-0.89008 8.7744,2.0027 3.1273,2.494 3.905,8.1087 0,4 -3.905,8.1087 -3.1273,2.494 -8.7744,2.0027 -3.8997,-0.89008 -7.0365,-5.6114 -1.7355,-3.6039 0,-9 1.7355,-3.6039 "
       id="Star7" />
    <polygon
       points="8.5595,-2.7812 3.8042,1.2361 5.2901,7.2812 0,4 -5.2901,7.2812 -3.8042,1.2361 -8.5595,-2.7812 -2.3511,-3.2361 0,-9 2.3511,-3.2361 "
       id="Star5" />
  </defs>
  <sodipodi:namedview
     id="base"
     pagecolor="#ffffff"
     bordercolor="#666666"
     borderopacity="1.0"
     inkscape:pageopacity="0.0"
     inkscape:pageshadow="2"
     inkscape:zoom="2.2"
     inkscape:cx="140.92585"
     inkscape:cy="181.65179"
     inkscape:document-units="px"
     inkscape:current-layer="layer1"
     showgrid="false"
     inkscape:window-width="1920"
     inkscape:window-height="1033"
     inkscape:window-x="-3"
     inkscape:window-y="24"
     inkscape:window-maximized="1"
     fit-margin-top="0"
     fit-margin-left="0"
     fit-margin-right="0"
     fit-margin-bottom="0" />
  <metadata
     id="metadata7">
    <rdf:RDF>
      <cc:Work
         rdf:about="">
        <dc:format>image/svg+xml</dc:format>
        <dc:type
           rdf:resource="http://purl.org/dc/dcmitype/StillImage" />
        <dc:title></dc:title>
      </cc:Work>
    </rdf:RDF>
  </metadata>
  <g
     inkscape:label="Layer 1"
     inkscape:groupmode="layer"
     id="layer1"
     transform="translate(-191.23245,-78.759438)">
    <flowRoot
       xml:space="preserve"
       id="flowRoot3336"
       style="font-style:normal;font-variant:normal;font-weight:normal;font-stretch:normal;font-size:72px;line-height:125%;font-family:Alexander;-inkscape-font-specification:Alexander;letter-spacing:0px;word-spacing:0px;fill:#000000;fill-opacity:1;stroke:none;stroke-width:1px;stroke-linecap:butt;stroke-linejoin:miter;stroke-opacity:1"><flowRegion
         id="flowRegion3338"><rect
           id="rect3340"
           width="457.89474"
           height="81.203011"
           x="146.61655"
           y="233.56522"
           style="font-style:normal;font-variant:normal;font-weight:normal;font-stretch:normal;font-family:Alexander;-inkscape-font-specification:Alexander" /></flowRegion><flowPara
         id="flowPara3342"></flowPara></flowRoot>    <text
       xml:space="preserve"
       style="font-style:normal;font-variant:normal;font-weight:normal;font-stretch:normal;font-size:72px;line-height:125%;font-family:'Linux Biolinum O';-inkscape-font-specification:'Linux Biolinum O';letter-spacing:0px;word-spacing:0px;fill:#000000;fill-opacity:1;stroke:none;stroke-width:1px;stroke-linecap:butt;stroke-linejoin:miter;stroke-opacity:1"
       x="185.15042"
       y="400.09152"
       id="text3344"
       sodipodi:linespacing="125%"><tspan
         sodipodi:role="line"
         id="tspan3346"
         x="185.15042"
         y="400.09152"
         style="font-style:normal;font-variant:normal;font-weight:300;font-stretch:normal;font-family:Roboto;-inkscape-font-specification:'Roboto Light';fill:#000000">lib<tspan
   style="fill:#008000"
   id="tspan4360">aus</tspan><tspan
   style="fill:#ffcc00"
   id="tspan4364">pol</tspan></tspan></text>
    <rect
       style="opacity:1;fill:#e3dbdb;fill-opacity:1;stroke:#000000;stroke-width:0.5;stroke-miterlimit:4;stroke-dasharray:none;stroke-opacity:1"
       id="rect4158"
       width="4.0889826"
       height="182.75334"
       x="325.45798"
       y="79.009438"
       ry="0" />
    <g
       id="g4322"
       transform="translate(1.00536,0)">
      <path
         id="path4184"
         d="m 331.14926,79.67009 69.65633,0 0,34.82816 -69.65633,0 0,-34.82816 z"
         style="fill:#00008b;stroke:#000000;stroke-width:0.5;stroke-miterlimit:4;stroke-dasharray:none;stroke-opacity:1"
         inkscape:connector-curvature="0" />
      <use
         transform="matrix(0.5804694,0,0,0.5804694,348.56334,105.79121)"
         xlink:href="#Star7"
         style="fill:#ffffff;stroke:none;stroke-width:0;stroke-miterlimit:4;stroke-dasharray:none;stroke-opacity:1"
         id="Commonwealth_Star"
         x="0"
         y="0"
         width="100%"
         height="100%" />
      <use
         transform="matrix(0.276414,0,0,0.276414,383.39151,108.69356)"
         xlink:href="#Star7"
         style="fill:#ffffff;stroke:none;stroke-width:0;stroke-miterlimit:4;stroke-dasharray:none;stroke-opacity:1"
         id="Star_Alpha_Crucis"
         x="0"
         y="0"
         width="100%"
         height="100%" />
      <use
         transform="matrix(0.276414,0,0,0.276414,374.68447,94.907413)"
         xlink:href="#Star7"
         style="fill:#ffffff;stroke:none;stroke-width:0;stroke-miterlimit:4;stroke-dasharray:none;stroke-opacity:1"
         id="Star_Beta_Crucis"
         x="0"
         y="0"
         width="100%"
         height="100%" />
      <use
         transform="matrix(0.276414,0,0,0.276414,383.39151,85.474784)"
         xlink:href="#Star7"
         style="fill:#ffffff;stroke:none;stroke-width:0;stroke-miterlimit:4;stroke-dasharray:none;stroke-opacity:1"
         id="Star_Gamma_Crucis"
         x="0"
         y="0"
         width="100%"
         height="100%" />
      <use
         transform="matrix(0.276414,0,0,0.276414,391.1311,92.585533)"
         xlink:href="#Star7"
         style="fill:#ffffff;stroke:none;stroke-width:0;stroke-miterlimit:4;stroke-dasharray:none;stroke-opacity:1"
         id="Star_Delta_Crucis"
         x="0"
         y="0"
         width="100%"
         height="100%" />
      <use
         transform="matrix(0.1612415,0,0,0.1612415,386.87432,98.535343)"
         xlink:href="#Star5"
         style="fill:#ffffff;stroke:none;stroke-width:0;stroke-miterlimit:4;stroke-dasharray:none;stroke-opacity:1"
         id="Star_Epsilon_Crucis"
         x="0"
         y="0"
         width="100%"
         height="100%" />
      <path
         d="m 345.66099,79.67009 5.8047,0 0,5.804694 14.51173,0 0,5.804689 -14.51173,0 0,5.8047 -5.8047,0 0,-5.8047 -14.51173,0 0,-5.804689 14.51173,0 0,-5.804694 z"
         style="fill:#ffffff;stroke:none;stroke-width:0;stroke-miterlimit:4;stroke-dasharray:none;stroke-opacity:1"
         id="White_Cross"
         inkscape:connector-curvature="0" />
      <path
         d="m 331.14926,79.67009 3.89398,0 30.93534,15.467203 0,1.94688 -3.89283,0 -30.93534,-15.467207 0,-1.946876 z"
         style="fill:#ffffff;stroke:none;stroke-width:0;stroke-miterlimit:4;stroke-dasharray:none;stroke-opacity:1"
         id="White_Diagonal"
         inkscape:connector-curvature="0" />
      <use
         transform="matrix(-1,0,0,1,697.12668,0)"
         xlink:href="#White_Diagonal"
         style="fill:#ffffff;stroke:none;stroke-width:0;stroke-miterlimit:4;stroke-dasharray:none;stroke-opacity:1"
         id="White_Diagonal_Flipped"
         x="0"
         y="0"
         width="100%"
         height="100%" />
      <path
         d="m 346.82193,79.67009 3.48282,0 0,6.965633 15.67267,0 0,3.48282 -15.67267,0 0,6.96563 -3.48282,0 0,-6.96563 -15.67267,0 0,-3.48282 15.67267,0 0,-6.965633 z"
         style="fill:#ff0000;stroke:none;stroke-width:0;stroke-miterlimit:4;stroke-dasharray:none;stroke-opacity:1"
         id="Red_Cross"
         inkscape:connector-curvature="0" />
      <path
         d="m 331.14926,79.67009 11.60939,5.804694 -2.59599,0 -9.0134,-4.5067 0,-1.297994 z m 34.82816,0 -2.59598,0 -11.60939,5.804694 2.59599,0 11.60938,-5.804694 z"
         style="fill:#ff0000;stroke:none;stroke-width:0;stroke-miterlimit:4;stroke-dasharray:none;stroke-opacity:1"
         id="Red_Diagonals"
         inkscape:connector-curvature="0" />
      <use
         transform="matrix(-1,0,0,-1,697.12668,176.75427)"
         xlink:href="#Red_Diagonals"
         style="fill:#ff0000;stroke:none;stroke-width:0;stroke-miterlimit:4;stroke-dasharray:none;stroke-opacity:1"
         id="Red_Diagonals_Rotated"
         x="0"
         y="0"
         width="100%"
         height="100%" />
    </g>
    <path
       inkscape:connector-curvature="0"
       id="path4156"
       d="m 439.68281,328.15168 -99.62406,-99.62406 0,-99.62406 -7.65413,0 0,107.5188 89.09774,89.09774 z"
       style="fill:#c8b7b7;fill-rule:evenodd;stroke:#000000;stroke-width:1px;stroke-linecap:butt;stroke-linejoin:miter;stroke-opacity:1"
       sodipodi:nodetypes="ccccccc" />
    <path
       sodipodi:nodetypes="ccccccc"
       style="fill:#c8b7b7;fill-rule:evenodd;stroke:#000000;stroke-width:1px;stroke-linecap:butt;stroke-linejoin:miter;stroke-opacity:1"
       d="m 215.32212,328.15168 99.62406,-99.62406 0,-99.62406 7.65413,0 0,107.5188 -89.09774,89.09774 z"
       id="path4358"
       inkscape:connector-curvature="0" />
  </g>
</svg>
